Coordinates
version=1
nRows=22
nColumns=24
inDegrees=yes

Units are S.I. units (second, meters, Newtons, ...)
Angles are in degrees.

endheader
time	pelvis_tilt	pelvis_list	pelvis_rotation	pelvis_tx	pelvis_ty	pelvis_tz	hip_flexion_r	hip_adduction_r	hip_rotation_r	knee_angle_r	ankle_angle_r	subtalar_angle_r	mtp_angle_r	hip_flexion_l	hip_adduction_l	hip_rotation_l	knee_angle_l	ankle_angle_l	subtalar_angle_l	mtp_angle_l	lumbar_extension	lumbar_bending	lumbar_rotation
      2.44000000	     -5.62275519	      1.58537911	    360.15188411	      0.23178144	      1.39121457	     -1.02637544	     14.30470200	      0.72242386	     -1.10035430	    -12.69089608	     -0.60017412	     -4.83639520	      5.75875411	     15.91366302	      3.73734907	      4.72728306	    -52.45291026	     -3.65693116	     10.30209177	     40.15558577	     -8.99895380	      6.75977245	      4.12739728
      2.44500000	     -5.73434961	      1.57916761	    360.09062962	      0.23635379	      1.39153520	     -1.02597320	     14.04129559	      0.79443362	     -0.88006641	    -12.47204846	     -0.61522186	     -5.17209828	      5.82549201	     16.66815243	      3.66640325	      4.54137368	    -52.53972531	     -3.12276063	     10.25850002	     39.32034157	     -8.91286320	      6.72483361	      4.19290811
      2.45000000	     -5.75464721	      1.72670370	    359.98890519	      0.24112795	      1.39199538	     -1.02558068	     13.70643321	      0.69604594	     -0.63009241	    -12.34460096	     -0.45654480	     -5.23731311	      5.80340992	     17.17469402	      3.78524789	      4.38302544	    -52.34745973	     -2.71510841	      9.93106526	     38.84102144	     -8.90055045	      6.52694034	      4.28425156
      2.45500000	     -5.75210581	      1.88619486	    359.97544584	      0.24583525	      1.39246630	     -1.02524356	     13.35642358	      0.57404272	     -0.39426762	    -12.24132281	     -0.33164011	     -5.44762717	      5.55477122	     17.65793989	      3.93611969	      4.31039914	    -52.12913723	     -2.25158505	      9.87170728	     37.97129110	     -8.91841692	      6.29737733	      4.29195135
      2.46000000	     -5.75106929	      2.07542525	    359.97859934	      0.25061151	      1.39293187	     -1.02496389	     12.97542887	      0.42288135	     -0.13449133	    -12.08402911	     -0.23120390	     -5.74550404	      5.38675966	     18.13539978	      4.11274153	      4.20327622	    -51.80839285	     -1.97792983	      9.55164157	     37.70523512	     -8.91571383	      6.05698459	      4.30136490
      2.46500000	     -5.85344216	      2.22436418	    359.97499390	      0.25509223	      1.39313666	     -1.02457305	     12.72536636	      0.32635784	      0.18985382	    -11.93122931	     -0.16362217	     -6.11584013	      5.06836084	     18.81164783	      4.20449094	      4.02243005	    -51.57364979	     -1.67219241	      9.44518166	     37.40873496	     -8.85510507	      5.83966230	      4.32594176
      2.47000000	     -5.93086760	      2.35288247	    359.97122114	      0.25962249	      1.39334710	     -1.02410995	     12.44109833	      0.25621339	      0.42219276	    -11.75595793	     -0.11738357	     -6.50226531	      4.85581835	     19.43902015	      4.26820509	      3.83290332	    -51.29658077	     -1.40021580	      9.31962318	     37.11591966	     -8.81187520	      5.64512174	      4.32359753
      2.47500000	     -6.02635264	      2.42061419	    359.94780855	      0.26404763	      1.39353503	     -1.02373556	     12.18380688	      0.25470316	      0.76215333	    -11.57150725	     -0.20368291	     -7.05840898	      4.58010291	     20.04910668	      4.28624301	      3.68108092	    -50.94265338	     -1.04782853	      9.06356215	     36.71527678	     -8.75877038	      5.53550570	      4.36786937
      2.48000000	     -6.14636628	      2.51322236	    359.98811658	      0.26861164	      1.39367628	     -1.02345938	     11.93253068	      0.20204789	      0.96411452	    -11.37166794	     -0.25574186	     -7.52550757	      4.38162992	     20.63411800	      4.37870157	      3.64497321	    -50.51197078	     -0.57118064	      8.94962905	     35.93615935	     -8.66687701	      5.37450397	      4.29993133
      2.48500000	     -6.17430562	      2.70264753	    359.99910458	      0.27310492	      1.39401081	     -1.02313744	     11.59397588	      0.04871106	      1.06087142	    -11.19428971	     -0.20755763	     -7.82499744	      4.24291254	     21.07078699	      4.55015949	      3.54958994	    -49.92282328	     -0.28239727	      8.79373336	     35.59823923	     -8.66265339	      5.08050645	      4.22336274
      2.49000000	     -6.19292943	      2.85976092	    359.96108912	      0.27767418	      1.39424984	     -1.02292450	     11.24814033	     -0.07026962	      1.25311289	    -11.01897979	     -0.18929458	     -8.09413438	      4.01506884	     21.47309110	      4.70408966	      3.47025593	    -49.31675425	      0.03244634	      8.59574055	     34.96370217	     -8.69263049	      4.88120973	      4.30812071
      2.49500000	     -6.14578772	      3.02852644	    359.90853015	      0.28244478	      1.39452170	     -1.02258201	     10.82089014	     -0.19606900	      1.46876677	    -10.88195178	     -0.01437757	     -8.28172694	      3.61587707	     21.79159583	      4.81736504	      3.29965828	    -48.68500627	      0.39285410	      8.62922573	     34.32486458	     -8.76844677	      4.65213816	      4.35455279
      2.50000000	     -6.30929639	      3.09518256	    359.96609329	      0.28693135	      1.39448219	     -1.02240557	     10.65302615	     -0.24127326	      1.52826076	    -10.76998331	      0.07422308	     -8.43883534	      3.39869657	     22.41767212	      4.88066267	      3.26808154	    -48.11624861	      0.64014370	      8.56885038	     33.70922798	     -8.64189133	      4.54982724	      4.32689731
      2.50500000	     -6.45201003	      3.20164100	    360.07106819	      0.29129048	      1.39444536	     -1.02238300	     10.48280821	     -0.34506075	      1.59287955	    -10.68041874	      0.18055211	     -8.64189184	      3.34211714	     23.00234637	      5.02048904	      3.30923219	    -47.44796263	      0.75007251	      8.43307478	     33.52195145	     -8.56249325	      4.40406756	      4.20858622
      2.51000000	     -6.56974166	      3.32546511	    360.11069302	      0.29568996	      1.39448473	     -1.02243578	     10.29992765	     -0.46977497	      1.65280625	    -10.60900217	      0.31987701	     -8.78184627	      3.26759619	     23.50249744	      5.15503428	      3.26712002	    -46.67151724	      0.80506121	      8.21903980	     33.41250095	     -8.48330906	      4.26424887	      4.13589833
      2.51500000	     -6.65636558	      3.41285162	    360.14360335	      0.30027348	      1.39450178	     -1.02220663	     10.07291570	     -0.53935492	      1.65001719	    -10.54090463	      0.47379849	     -8.88057259	      3.23810124	     23.92114021	      5.21757407	      3.21459914	    -45.83245278	      0.93166853	      8.12348985	     33.35773676	     -8.45103939	      4.10544793	      4.12674471
      2.52000000	     -6.72106869	      3.50427106	    360.20090107	      0.30475883	      1.39451250	     -1.02215598	      9.81403757	     -0.62528516	      1.68389106	    -10.45266726	      0.62533266	     -9.02810591	      3.20835509	     24.29685719	      5.32151553	      3.21612678	    -44.94077485	      0.99230007	      7.89929275	     33.28076867	     -8.43328315	      3.97134328	      4.09249429
      2.52500000	     -6.74862132	      3.59918633	    360.22749066	      0.30928194	      1.39454845	     -1.02209950	      9.51419530	     -0.71491545	      1.81489698	    -10.38219358	      0.83410439	     -9.20698220	      3.11198215	     24.62207200	      5.40471404	      3.15704240	    -44.02958918	      1.05122699	      7.75428390	     32.87266221	     -8.43262559	      3.83599687	      4.06686483
      2.53000000	     -6.82422994	      3.70122355	    360.29826465	      0.31369743	      1.39445149	     -1.02212576	      9.31195015	     -0.82254827	      1.89313915	    -10.40496638	      1.06380465	     -9.32102723	      3.01408191	     24.96981458	      5.56427907	      3.27277145	    -43.04564322	      1.12262412	      7.56510688	     32.52400989	     -8.43489046	      3.71086179	      4.00469741
      2.53500000	     -6.93465793	      3.76017717	    360.37282856	      0.31813799	      1.39428965	     -1.02193217	      9.14248325	     -0.87971797	      1.78467160	    -10.40014521	      1.28141958	     -9.31073333	      3.01743012	     25.36076001	      5.63015096	      3.31900791	    -42.02480016	      1.16601632	      7.44571794	     32.52055446	     -8.41175035	      3.60441014	      3.95088282
      2.54000000	     -6.99194491	      3.80362486	    360.40627122	      0.32258201	      1.39419817	     -1.02179993	      8.89198671	     -0.92356532	      1.66542138	    -10.32972565	      1.51095039	     -9.19359883	      3.09934458	     25.65803007	      5.67300708	      3.35064583	    -40.94173794	      1.05654342	      7.19646148	     32.50668667	     -8.43659482	      3.51369353	      3.91669296
      2.54500000	     -7.03409114	      3.88460001	    360.45790813	      0.32709635	      1.39412857	     -1.02174890	      8.63977010	     -0.99793823	      1.70017023	    -10.31092912	      1.66776281	     -9.39756895	      3.08513351	     25.89461675	      5.76860089	      3.40188000	    -39.77011930	      0.94428352	      7.01131486	     32.46374490	     -8.44190626	      3.40377467	      3.85196519
